<svg width="1440" height="1024" viewBox="0 0 1440 1024" fill="none" xmlns="http://www.w3.org/2000/svg">
<rect x="-7" y="-170" width="1455" height="1318" fill="url(#paint0_linear_98_485)"/>
<g opacity="0.8">
<g opacity="0.05">
<rect x="-56" y="1080.81" width="274.107" height="274.107" transform="rotate(-90 -56 1080.81)" stroke="#141414" stroke-width="6.22357"/>
<path d="M-56 808.316L-56 534.209L218.107 534.209L218.107 808.316L-56 808.316Z" stroke="#141414" stroke-width="6.22357"/>
<rect x="-56" y="535.821" width="274.107" height="274.107" transform="rotate(-90 -56 535.821)" stroke="#141414" stroke-width="6.22357"/>
<path d="M-56 263.327L-56 -10.7797L218.107 -10.7797L218.107 263.327L-56 263.327Z" stroke="#141414" stroke-width="6.22357"/>
<rect x="216.494" y="1080.81" width="274.107" height="274.107" transform="rotate(-90 216.494 1080.81)" stroke="#141414" stroke-width="6.22357"/>
<path d="M216.494 808.316L216.494 534.209L490.601 534.209L490.601 808.316L216.494 808.316Z" stroke="#141414" stroke-width="6.22357"/>
<rect x="216.494" y="535.821" width="274.107" height="274.107" transform="rotate(-90 216.494 535.821)" stroke="#141414" stroke-width="6.22357"/>
<path d="M216.494 263.327L216.494 -10.7798L490.601 -10.7798L490.601 263.327L216.494 263.327Z" stroke="#141414" stroke-width="6.22357"/>
<rect x="488.987" y="1080.81" width="274.107" height="274.107" transform="rotate(-90 488.987 1080.81)" stroke="#141414" stroke-width="6.22357"/>
<path d="M488.987 808.316L488.987 534.209L763.093 534.209L763.093 808.316L488.987 808.316Z" stroke="#141414" stroke-width="6.22357"/>
<rect x="488.987" y="535.821" width="274.107" height="274.107" transform="rotate(-90 488.987 535.821)" stroke="#141414" stroke-width="6.22357"/>
<path d="M488.987 263.327L488.987 -10.7796L763.093 -10.7796L763.093 263.327L488.987 263.327Z" stroke="#141414" stroke-width="6.22357"/>
<rect x="761.483" y="1080.81" width="274.107" height="274.107" transform="rotate(-90 761.483 1080.81)" stroke="#141414" stroke-width="6.22357"/>
<path d="M761.483 808.316L761.483 534.209L1035.59 534.209L1035.59 808.316L761.483 808.316Z" stroke="#141414" stroke-width="6.22357"/>
<rect x="761.483" y="535.821" width="274.107" height="274.107" transform="rotate(-90 761.483 535.821)" stroke="#141414" stroke-width="6.22357"/>
<path d="M761.483 263.327L761.483 -10.7797L1035.59 -10.7797L1035.59 263.327L761.483 263.327Z" stroke="#141414" stroke-width="6.22357"/>
<rect x="1033.98" y="1080.81" width="274.107" height="274.107" transform="rotate(-90 1033.98 1080.81)" stroke="#141414" stroke-width="6.22357"/>
<path d="M1033.98 808.316L1033.98 534.209L1308.08 534.209L1308.08 808.316L1033.98 808.316Z" stroke="#141414" stroke-width="6.22357"/>
<rect x="1033.98" y="535.821" width="274.107" height="274.107" transform="rotate(-90 1033.98 535.821)" stroke="#141414" stroke-width="6.22357"/>
<path d="M1033.98 263.327L1033.98 -10.7797L1308.08 -10.7797L1308.08 263.327L1033.98 263.327Z" stroke="#141414" stroke-width="6.22357"/>
<rect x="1306.47" y="1080.81" width="274.107" height="274.107" transform="rotate(-90 1306.47 1080.81)" stroke="#141414" stroke-width="6.22357"/>
<path d="M1306.47 808.316L1306.47 534.209L1580.58 534.209L1580.58 808.316L1306.47 808.316Z" stroke="#141414" stroke-width="6.22357"/>
<rect x="1306.47" y="535.821" width="274.107" height="274.107" transform="rotate(-90 1306.47 535.821)" stroke="#141414" stroke-width="6.22357"/>
<path d="M1306.47 263.327L1306.47 -10.7797L1580.58 -10.7797L1580.58 263.327L1306.47 263.327Z" stroke="#141414" stroke-width="6.22357"/>
</g>
</g>
<defs>
<linearGradient id="paint0_linear_98_485" x1="720.5" y1="-170" x2="1005.24" y2="920.254" gradientUnits="userSpaceOnUse">
<stop stop-color="#F86300"/>
<stop offset="1" stop-color="#DD3A3A" stop-opacity="0.9"/>
</linearGradient>
</defs>
</svg>
