<svg width="81" height="81" viewBox="0 0 81 81" fill="none" xmlns="http://www.w3.org/2000/svg">
<path d="M44.2538 77.2185C64.538 75.1402 79.2968 57.0119 77.2185 36.7278C75.1402 16.4436 57.0119 1.6848 36.7277 3.76307C16.4436 5.84135 1.68478 23.9697 3.76305 44.2539C5.84133 64.538 23.9697 79.2968 44.2538 77.2185Z" fill="#BFCFCE"/>
<path d="M41.8118 66.0091C45.6447 66.0091 48.7518 62.9019 48.7518 59.0691C48.7518 55.2362 45.6447 52.1291 41.8118 52.1291C37.979 52.1291 34.8718 55.2362 34.8718 59.0691C34.8718 62.9019 37.979 66.0091 41.8118 66.0091Z" fill="#A6BAB8"/>
<path d="M24.0517 42.4691C25.9617 44.3791 25.9617 47.4891 24.0517 49.3991C22.1417 51.3091 19.0317 51.3091 17.1217 49.3991C15.2117 47.4891 15.2117 44.3791 17.1217 42.4691C19.0317 40.5591 22.1417 40.5591 24.0517 42.4691Z" fill="#A6BAB8"/>
<path d="M67.4816 33.4791C69.3916 35.3891 69.3916 38.4991 67.4816 40.4091C65.5716 42.3191 62.4616 42.3191 60.5516 40.4091C58.6416 38.4991 58.6416 35.3891 60.5516 33.4791C62.4616 31.5691 65.5716 31.5691 67.4816 33.4791Z" fill="#A6BAB8"/>
<path d="M23.0518 61.5291C24.4104 61.5291 25.5118 60.4277 25.5118 59.0691C25.5118 57.7105 24.4104 56.6091 23.0518 56.6091C21.6932 56.6091 20.5918 57.7105 20.5918 59.0691C20.5918 60.4277 21.6932 61.5291 23.0518 61.5291Z" fill="#A6BAB8"/>
<path d="M40.9417 13.1391C42.3517 14.5491 42.3517 16.8291 40.9417 18.2391C39.5317 19.6491 37.2517 19.6491 35.8417 18.2391C34.4317 16.8291 34.4317 14.5491 35.8417 13.1391C37.2517 11.7291 39.5317 11.7291 40.9417 13.1391Z" fill="#A6BAB8"/>
<path d="M65.7518 45.5391C66.7118 46.4991 66.7118 48.0591 65.7518 49.0191C64.7918 49.9791 63.2318 49.9791 62.2718 49.0191C61.3118 48.0591 61.3118 46.4991 62.2718 45.5391C63.2318 44.5791 64.7918 44.5791 65.7518 45.5391Z" fill="#A6BAB8"/>
<path d="M27.2518 17.1591C28.2118 18.1191 28.2118 19.6791 27.2518 20.6391C26.2918 21.5991 24.7318 21.5991 23.7718 20.6391C22.8118 19.6791 22.8118 18.1191 23.7718 17.1591C24.7318 16.1991 26.2918 16.1991 27.2518 17.1591Z" fill="#A6BAB8"/>
</svg>
