<svg width="304" height="304" viewBox="0 0 304 304" fill="none" xmlns="http://www.w3.org/2000/svg">
<path d="M125.446 152.761C151.813 145.501 140.027 181.114 129.572 199C119.117 216.886 99.6246 221.074 78.8156 195.787C58.0067 170.5 55.5012 109.198 96.0706 75.7427C136.64 42.2873 149.39 73.2077 161.596 93L186.229 55M125.446 152.761C113.103 156.159 102.363 156.22 102.363 156.22M125.446 152.761C142.377 179.512 135.484 211 177.361 215" stroke="url(#paint0_linear_326_2612)" stroke-width="22"/>
<path d="M233.525 210.5C233.525 210.5 192.141 203 171.942 149L216.282 82" stroke="#FF4B00" stroke-width="22"/>
<path d="M265.056 204.5C268.516 204.5 271.41 207.361 271.41 211C271.41 214.639 268.516 217.5 265.056 217.5C261.596 217.5 258.703 214.639 258.703 211C258.703 207.361 261.596 204.5 265.056 204.5Z" stroke="#F6BF1E" stroke-width="7"/>
<path d="M264.071 218V243L189.185 284" stroke="#F6BF1E" stroke-width="5"/>
<path d="M248.798 179.5C253.074 179.5 256.63 183.033 256.63 187.5C256.63 191.967 253.074 195.5 248.798 195.5C244.521 195.5 240.967 191.967 240.967 187.5C240.967 183.033 244.521 179.5 248.798 179.5Z" stroke="#EF7F1F" stroke-width="7"/>
<path d="M249.306 193V234.699L202.98 259" stroke="#EC7E1F" stroke-width="5"/>
<path d="M111.343 255H202.98" stroke="#EF7F1F" stroke-width="20" stroke-linecap="round"/>
<path d="M126.123 280H189.185" stroke="#EF7F1F" stroke-width="20" stroke-linecap="round"/>
<ellipse cx="157.654" cy="290.5" rx="23.6481" ry="13.5" fill="#EF7F1F"/>
<rect x="2.27951" y="5.98846" width="49.4521" height="31.7175" rx="4.5" transform="matrix(0.909581 0.415563 -0.403023 0.915206 253.453 57.5605)" stroke="#4280EF" stroke-width="9" stroke-linejoin="round"/>
<path d="M261.154 107.615L256.355 118.508L243.07 112.441L269.182 124.365" stroke="#4280EF" stroke-width="9"/>
<path d="M71.7677 30.1861C71.7677 30.1861 72.539 36.4591 62.462 45.1153C54.1634 52.244 44.0346 47.9816 44.0346 47.9816L48.0558 41.8597C48.0558 41.8597 50.0811 42.8901 51.3302 41.4938C52.5793 40.0975 51.0753 38.2912 51.0753 38.2912L60.1506 32.1882C60.1506 32.1882 62.3233 34.9992 64.1994 33.7376C65.712 32.7204 64.5631 30.1591 64.5631 30.1591L71.7677 30.1861Z" fill="#4DC398"/>
<path d="M76.5492 30.8516L92.6671 17.0949C92.6671 17.0949 97.7361 21.7196 96.2589 32.4607C94.1641 47.6931 82.3051 57.393 75.1475 62.5746C68.0117 67.7404 56.9957 72.7415 42.8454 71.665C30.7055 70.7414 26.6538 64.9516 26.6538 64.9516L41.2579 51.701C41.2579 51.701 51.7201 59.0878 66.5051 47.7016C77.0856 39.5533 76.5492 30.8516 76.5492 30.8516Z" fill="#4DC398"/>
<path d="M41.2733 51.6808L26.6694 64.9316C26.6694 64.9316 20.5862 59.2797 22.0631 48.5387C24.1577 33.3064 36.0167 23.6064 43.1743 18.4248C50.31 13.2589 61.326 8.25768 75.4764 9.33393C87.6164 10.2573 93.1893 17.5878 93.1893 17.5878L76.5644 30.831C76.5644 30.831 74.9197 28.4953 73.5256 28.7727C72.4319 28.9904 71.7717 30.1681 71.7717 30.1681L64.5673 30.1413C64.5673 30.1413 62.6718 28.599 61.1598 29.6168C59.9605 30.4242 60.6656 32.6854 60.6656 32.6854L51.0864 38.2788C51.0864 38.2788 48.5565 37.2459 47.5515 38.7774C46.5466 40.3089 48.0678 41.8498 48.0678 41.8498L44.0481 47.9756C44.0481 47.9756 42.0952 47.4829 41.2622 48.6103C40.5554 49.5669 41.2733 51.6808 41.2733 51.6808Z" fill="#4DC398"/>
<path d="M35.0829 214.496C33.1756 214.708 31.8037 216.449 32.0187 218.384L35.5219 249.916C35.7369 251.851 37.4573 253.248 39.3646 253.036C41.2719 252.824 42.6438 251.083 42.4288 249.148L39.3148 221.12L66.9424 218.05C68.8497 217.839 70.2216 216.098 70.0066 214.163C69.7916 212.228 68.0712 210.831 66.1639 211.043L35.0829 214.496ZM89.6658 262L91.8325 259.251L37.6389 215.251L35.4721 218L33.3054 220.749L87.4991 264.749L89.6658 262Z" fill="#558DF1"/>
<ellipse cx="133.021" cy="25" rx="9.85339" ry="10" fill="#E8564B"/>
<ellipse cx="162.581" cy="40" rx="4.9267" ry="5" fill="#33B989"/>
<ellipse cx="12.8095" cy="138" rx="4.92669" ry="5" fill="#33B989"/>
<ellipse cx="31.5308" cy="114" rx="13.7947" ry="14" fill="#F5B704"/>
<path d="M217.701 150.76C217.349 150.76 217.045 150.632 216.789 150.376C216.533 150.12 216.405 149.816 216.405 149.464V142.792C216.405 142.44 216.533 142.136 216.789 141.88C217.045 141.624 217.349 141.496 217.701 141.496H225.333V134.248C225.333 133.896 225.461 133.592 225.717 133.336C225.973 133.08 226.277 132.952 226.629 132.952H233.925C234.277 132.952 234.581 133.08 234.837 133.336C235.093 133.592 235.221 133.896 235.221 134.248V141.496H242.853C243.205 141.496 243.509 141.624 243.765 141.88C244.021 142.136 244.149 142.44 244.149 142.792V149.464C244.149 149.816 244.021 150.12 243.765 150.376C243.509 150.632 243.205 150.76 242.853 150.76H235.221V158.248C235.221 158.6 235.093 158.904 234.837 159.16C234.581 159.416 234.277 159.544 233.925 159.544H226.629C226.277 159.544 225.973 159.416 225.717 159.16C225.461 158.904 225.333 158.6 225.333 158.248V150.76H217.701Z" fill="#33B989"/>
<path d="M19.8798 163.687C20.6102 162.189 22.7447 162.189 23.4751 163.687L27.4072 171.751C27.7038 172.359 28.2877 172.776 28.9592 172.859L37.9821 173.977C39.6773 174.187 40.3462 176.288 39.0844 177.439L32.5481 183.403C32.0324 183.873 31.7994 184.578 31.9332 185.264L33.6151 193.873C33.9377 195.525 32.2009 196.812 30.7146 196.023L22.615 191.725C22.0287 191.413 21.3262 191.413 20.7399 191.725L12.6403 196.023C11.154 196.812 9.41723 195.525 9.73985 193.873L11.4217 185.264C11.5555 184.578 11.3225 183.873 10.8068 183.403L4.27055 177.439C3.00873 176.288 3.67763 174.187 5.37279 173.977L14.3957 172.859C15.0672 172.776 15.6511 172.359 15.9477 171.751L19.8798 163.687Z" fill="#4280EF"/>
<path d="M215.976 26.5187C216.717 25.0578 218.803 25.0578 219.544 26.5187L225.622 38.5082C225.805 38.8696 226.094 39.1669 226.45 39.3606L238.18 45.7432C239.572 46.5007 239.572 48.4993 238.18 49.2568L226.45 55.6394C226.094 55.8331 225.805 56.1304 225.622 56.4918L219.544 68.4813C218.803 69.9422 216.717 69.9422 215.976 68.4813L209.898 56.4918C209.715 56.1304 209.426 55.8331 209.07 55.6394L197.34 49.2568C195.948 48.4993 195.948 46.5007 197.34 45.7432L209.07 39.3606C209.426 39.1669 209.715 38.8696 209.898 38.5082L215.976 26.5187Z" fill="#F5B704"/>
<defs>
<linearGradient id="paint0_linear_326_2612" x1="128.439" y1="51.4161" x2="170.52" y2="178.547" gradientUnits="userSpaceOnUse">
<stop stop-color="#F86300"/>
<stop offset="1" stop-color="#DD3A3A" stop-opacity="0.9"/>
</linearGradient>
</defs>
</svg>
