<svg width="290" height="122" viewBox="0 0 290 122" fill="none" xmlns="http://www.w3.org/2000/svg">
<g clip-path="url(#clip0_98_647)">
<path d="M50.4663 59.3048C59.7599 56.7833 55.6059 69.1517 51.9208 75.3635C48.2357 81.5753 41.3654 83.0298 34.0309 74.2477C26.6965 65.4655 25.8134 44.1756 40.1127 32.5566C54.412 20.9376 58.9059 31.6762 63.208 38.55L71.8904 25.3527M50.4663 59.3048C46.1161 60.4851 42.3305 60.5062 42.3305 60.5062M50.4663 59.3048C56.434 68.5953 54.0046 79.531 68.7647 80.9202" stroke="white" stroke-width="7.64053"/>
<path d="M88.5606 79.3574C88.5606 79.3574 73.9741 76.7527 66.8545 57.9986L82.4829 34.7297" stroke="white" stroke-width="7.64053"/>
<circle cx="99.6739" cy="79.5311" r="2.25743" stroke="white" stroke-width="2.43108"/>
<path d="M99.3267 81.9622V90.6446L72.9321 104.884" stroke="white" stroke-width="1.73649"/>
<circle cx="93.9436" cy="71.3695" r="2.77838" stroke="white" stroke-width="2.43108"/>
<path d="M94.1228 73.2797V87.7615L77.7944 96.2013" stroke="white" stroke-width="1.73649"/>
<path d="M45.4961 94.8121H77.7947" stroke="white" stroke-width="6.94594" stroke-linecap="round"/>
<path d="M50.7056 103.495H72.9326" stroke="white" stroke-width="6.94594" stroke-linecap="round"/>
<ellipse cx="61.819" cy="107.141" rx="8.33513" ry="4.68851" fill="white"/>
<rect x="95.4907" y="28.4602" width="17.3649" height="11.1135" rx="1.56284" transform="rotate(24.1583 95.4907 28.4602)" stroke="white" stroke-width="3.12567" stroke-linejoin="round"/>
<path d="M98.3055 43.6158L96.5999 47.4183L91.9245 45.3212L101.114 49.4431" stroke="white" stroke-width="3.12567"/>
<path d="M18.6197 80.754C17.9524 80.8281 17.4717 81.4291 17.5458 82.0963L18.7539 92.9693C18.828 93.6365 19.429 94.1173 20.0962 94.0431C20.7634 93.969 21.2442 93.368 21.1701 92.7008L20.0962 83.036L29.7611 81.9621C30.4283 81.888 30.9091 81.287 30.8349 80.6198C30.7608 79.9525 30.1598 79.4718 29.4926 79.5459L18.6197 80.754ZM37.8552 97.2432L38.6146 96.294L19.5132 81.0129L18.7539 81.9621L17.9945 82.9113L37.0959 98.1923L37.8552 97.2432Z" fill="white"/>
<circle cx="53.1365" cy="14.9338" r="3.47297" fill="white"/>
<circle cx="63.5553" cy="20.1432" r="1.73649" fill="white"/>
<circle cx="10.766" cy="54.1784" r="1.73649" fill="white"/>
<circle cx="17.3648" cy="45.8432" r="4.86216" fill="white"/>
<path d="M82.9428 58.4247C82.8206 58.4247 82.715 58.3803 82.6261 58.2914C82.5372 58.2025 82.4927 58.0969 82.4927 57.9746V55.6575C82.4927 55.5352 82.5372 55.4297 82.6261 55.3407C82.715 55.2518 82.8206 55.2074 82.9428 55.2074H85.5934V52.6902C85.5934 52.5679 85.6379 52.4623 85.7268 52.3734C85.8157 52.2845 85.9213 52.2401 86.0435 52.2401H88.5774C88.6996 52.2401 88.8052 52.2845 88.8941 52.3734C88.983 52.4623 89.0275 52.5679 89.0275 52.6902V55.2074H91.6781C91.8003 55.2074 91.9059 55.2518 91.9948 55.3407C92.0837 55.4297 92.1282 55.5352 92.1282 55.6575V57.9746C92.1282 58.0969 92.0837 58.2025 91.9948 58.2914C91.9059 58.3803 91.8003 58.4247 91.6781 58.4247H89.0275V61.0253C89.0275 61.1476 88.983 61.2531 88.8941 61.342C88.8052 61.4309 88.6996 61.4754 88.5774 61.4754H86.0435C85.9213 61.4754 85.8157 61.4309 85.7268 61.342C85.6379 61.2531 85.5934 61.1476 85.5934 61.0253V58.4247H82.9428Z" fill="white"/>
<path d="M13.2695 63.0769C13.5245 62.5615 14.2595 62.5615 14.5145 63.0769L15.9128 65.9026C16.0166 66.1123 16.219 66.2557 16.4513 66.284L19.6426 66.6734C20.2344 66.7456 20.4662 67.4808 20.0228 67.8794L17.7246 69.9455C17.5424 70.1093 17.46 70.3569 17.5076 70.5972L18.1009 73.5897C18.2144 74.1619 17.6146 74.6106 17.0977 74.3403L14.2139 72.8322C14.0122 72.7268 13.7718 72.7268 13.5701 72.8322L10.6863 74.3403C10.1694 74.6106 9.56962 74.1619 9.68306 73.5897L10.2764 70.5972C10.324 70.3569 10.2415 70.1093 10.0594 69.9455L7.76117 67.8794C7.3178 67.4808 7.54961 66.7456 8.14143 66.6734L11.3327 66.284C11.565 66.2557 11.7674 66.1123 11.8712 65.9026L13.2695 63.0769Z" fill="white"/>
<path d="M82.3862 15.4397C82.6447 14.9373 83.363 14.9373 83.6215 15.4397L85.7752 19.6257C85.8396 19.7509 85.9406 19.8536 86.0646 19.9201L90.1972 22.1359C90.6857 22.3978 90.6857 23.0983 90.1972 23.3602L86.0646 25.576C85.9406 25.6425 85.8396 25.7452 85.7752 25.8703L83.6215 30.0564C83.363 30.5588 82.6447 30.5588 82.3862 30.0564L80.2324 25.8703C80.168 25.7452 80.0671 25.6425 79.943 25.576L75.8104 23.3602C75.3219 23.0983 75.3219 22.3978 75.8104 22.1359L79.943 19.9201C80.0671 19.8536 80.168 19.7509 80.2324 19.6257L82.3862 15.4397Z" fill="white"/>
<path d="M31.5357 17.7407C31.5357 17.7407 31.8003 19.9302 28.2287 22.966C25.2874 25.4661 21.7139 23.991 21.7139 23.991L23.1425 21.848C23.1425 21.848 23.8568 22.2052 24.3 21.716C24.7431 21.2268 24.214 20.598 24.214 20.598L27.4284 18.455C27.4284 18.455 28.1925 19.4338 28.857 18.9908C29.3928 18.6336 28.9901 17.7407 28.9901 17.7407L31.5357 17.7407Z" fill="white"/>
<path d="M33.2293 17.9658L38.9439 13.1442C38.9439 13.1442 40.7297 14.7514 40.1939 18.5016C39.4342 23.8198 35.2301 27.2202 32.6936 29.0378C30.1648 30.8498 26.2648 32.6093 21.2645 32.2522C16.9747 31.9458 15.55 29.9307 15.55 29.9307L20.7287 25.2876C20.7287 25.2876 24.4174 27.8516 29.6577 23.859C33.4079 21.0017 33.2293 17.9658 33.2293 17.9658Z" fill="white"/>
<path d="M20.7282 25.2875L15.5494 29.9306C15.5494 29.9306 13.4064 27.9662 13.9422 24.2161C14.7019 18.8978 18.906 15.4974 21.4425 13.6799C23.9713 11.8679 27.8714 10.1083 32.8716 10.4655C37.1614 10.7719 39.1219 13.3227 39.1219 13.3227L33.2287 17.9658C33.2287 17.9658 32.6504 17.1528 32.1573 17.2515C31.7704 17.3288 31.5355 17.7407 31.5355 17.7407H28.9891C28.9891 17.7407 28.3211 17.205 27.7854 17.5621C27.3604 17.8454 27.6068 18.6336 27.6068 18.6336L24.2138 20.598C24.2138 20.598 23.3209 20.2408 22.9637 20.7765C22.6066 21.3123 23.1423 21.848 23.1423 21.848L21.7137 23.991C21.7137 23.991 21.0241 23.8216 20.7282 24.2161C20.4771 24.5508 20.7282 25.2875 20.7282 25.2875Z" fill="white"/>
<path d="M138.574 37.4902C138.199 36.7995 137.656 36.2765 136.946 35.9212C136.255 35.5463 135.436 35.3588 134.489 35.3588C132.85 35.3588 131.538 35.9015 130.551 36.987C129.564 38.0527 129.071 39.4835 129.071 41.2795C129.071 43.1939 129.584 44.6938 130.61 45.7792C131.656 46.845 133.087 47.3778 134.903 47.3778C136.146 47.3778 137.192 47.0621 138.041 46.4305C138.909 45.799 139.541 44.8911 139.936 43.707H133.512V39.9769H144.524V44.6839C144.149 45.947 143.508 47.1213 142.6 48.2067C141.712 49.2922 140.577 50.1704 139.195 50.8414C137.814 51.5125 136.255 51.848 134.518 51.848C132.466 51.848 130.63 51.4039 129.012 50.5158C127.413 49.608 126.16 48.3547 125.252 46.7562C124.364 45.1576 123.92 43.332 123.92 41.2795C123.92 39.227 124.364 37.4014 125.252 35.8028C126.16 34.1845 127.413 32.9313 129.012 32.0432C130.61 31.1353 132.436 30.6814 134.489 30.6814C136.975 30.6814 139.067 31.2833 140.764 32.4872C142.481 33.6911 143.616 35.3588 144.169 37.4902H138.574ZM162.9 43.1741C162.9 43.6478 162.87 44.1412 162.811 44.6543H151.354C151.433 45.6806 151.759 46.47 152.331 47.0226C152.923 47.5554 153.644 47.8219 154.492 47.8219C155.755 47.8219 156.634 47.289 157.127 46.2233H162.515C162.239 47.3088 161.735 48.2857 161.005 49.154C160.295 50.0224 159.397 50.7033 158.311 51.1967C157.226 51.6901 156.012 51.9368 154.67 51.9368C153.052 51.9368 151.611 51.5914 150.348 50.9007C149.085 50.2099 148.098 49.2231 147.387 47.9403C146.677 46.6575 146.322 45.1576 146.322 43.4405C146.322 41.7235 146.667 40.2236 147.358 38.9408C148.068 37.658 149.055 36.6712 150.318 35.9804C151.581 35.2897 153.032 34.9443 154.67 34.9443C156.268 34.9443 157.689 35.2798 158.933 35.9508C160.176 36.6219 161.143 37.579 161.834 38.8224C162.544 40.0657 162.9 41.5163 162.9 43.1741ZM157.719 41.842C157.719 40.9736 157.423 40.2828 156.831 39.7697C156.239 39.2566 155.499 39 154.611 39C153.762 39 153.042 39.2467 152.45 39.7401C151.877 40.2335 151.522 40.9341 151.384 41.842H157.719ZM175.635 35.0035C177.57 35.0035 179.109 35.6351 180.254 36.8982C181.418 38.1415 182 39.8585 182 42.0492V51.7H176.968V42.7301C176.968 41.6249 176.681 40.7664 176.109 40.1545C175.537 39.5427 174.767 39.2368 173.8 39.2368C172.833 39.2368 172.063 39.5427 171.491 40.1545C170.919 40.7664 170.632 41.6249 170.632 42.7301V51.7H165.57V35.1811H170.632V37.3718C171.146 36.6416 171.836 36.0693 172.705 35.6548C173.573 35.2206 174.55 35.0035 175.635 35.0035ZM197.567 51.7L190.58 42.5228V51.7H185.518V30.9182H190.58V40.0361L197.507 30.9182H203.458L195.406 41.1019L203.754 51.7H197.567ZM208.705 33.4641C207.817 33.4641 207.087 33.2076 206.515 32.6944C205.962 32.1616 205.686 31.5103 205.686 30.7406C205.686 29.9512 205.962 29.2999 206.515 28.7868C207.087 28.2539 207.817 27.9875 208.705 27.9875C209.574 27.9875 210.284 28.2539 210.837 28.7868C211.409 29.2999 211.695 29.9512 211.695 30.7406C211.695 31.5103 211.409 32.1616 210.837 32.6944C210.284 33.2076 209.574 33.4641 208.705 33.4641ZM211.222 35.1811V51.7H206.16V35.1811H211.222ZM213.884 43.4109C213.884 41.7137 214.2 40.2236 214.831 38.9408C215.482 37.658 216.361 36.6712 217.466 35.9804C218.571 35.2897 219.804 34.9443 221.166 34.9443C222.252 34.9443 223.238 35.1713 224.127 35.6252C225.034 36.0791 225.745 36.6909 226.258 37.4606V29.7933H231.32V51.7H226.258V49.3317C225.784 50.1211 225.104 50.7526 224.215 51.2263C223.347 51.7 222.331 51.9368 221.166 51.9368C219.804 51.9368 218.571 51.5914 217.466 50.9007C216.361 50.1902 215.482 49.1935 214.831 47.9107C214.2 46.6081 213.884 45.1082 213.884 43.4109ZM226.258 43.4405C226.258 42.1775 225.903 41.1808 225.192 40.4506C224.502 39.7204 223.653 39.3553 222.646 39.3553C221.64 39.3553 220.781 39.7204 220.071 40.4506C219.38 41.1611 219.035 42.1479 219.035 43.4109C219.035 44.674 219.38 45.6806 220.071 46.4305C220.781 47.1607 221.64 47.5258 222.646 47.5258C223.653 47.5258 224.502 47.1607 225.192 46.4305C225.903 45.7003 226.258 44.7036 226.258 43.4405ZM233.976 43.4109C233.976 41.7137 234.292 40.2236 234.923 38.9408C235.575 37.658 236.453 36.6712 237.558 35.9804C238.663 35.2897 239.897 34.9443 241.259 34.9443C242.344 34.9443 243.331 35.1713 244.219 35.6252C245.127 36.0791 245.837 36.6909 246.35 37.4606V29.7933H251.413V51.7H246.35V49.3317C245.877 50.1211 245.196 50.7526 244.308 51.2263C243.439 51.7 242.423 51.9368 241.259 51.9368C239.897 51.9368 238.663 51.5914 237.558 50.9007C236.453 50.1902 235.575 49.1935 234.923 47.9107C234.292 46.6081 233.976 45.1082 233.976 43.4109ZM246.35 43.4405C246.35 42.1775 245.995 41.1808 245.285 40.4506C244.594 39.7204 243.745 39.3553 242.739 39.3553C241.732 39.3553 240.874 39.7204 240.163 40.4506C239.472 41.1611 239.127 42.1479 239.127 43.4109C239.127 44.674 239.472 45.6806 240.163 46.4305C240.874 47.1607 241.732 47.5258 242.739 47.5258C243.745 47.5258 244.594 47.1607 245.285 46.4305C245.995 45.7003 246.35 44.7036 246.35 43.4405ZM262.594 51.9368C260.976 51.9368 259.515 51.5914 258.213 50.9007C256.93 50.2099 255.914 49.2231 255.164 47.9403C254.433 46.6575 254.068 45.1576 254.068 43.4405C254.068 41.7433 254.443 40.2532 255.193 38.9704C255.943 37.6678 256.969 36.6712 258.272 35.9804C259.575 35.2897 261.035 34.9443 262.653 34.9443C264.272 34.9443 265.732 35.2897 267.035 35.9804C268.337 36.6712 269.364 37.6678 270.113 38.9704C270.863 40.2532 271.238 41.7433 271.238 43.4405C271.238 45.1378 270.854 46.6377 270.084 47.9403C269.334 49.2231 268.298 50.2099 266.975 50.9007C265.673 51.5914 264.212 51.9368 262.594 51.9368ZM262.594 47.5554C263.561 47.5554 264.38 47.2002 265.051 46.4897C265.742 45.7792 266.087 44.7628 266.087 43.4405C266.087 42.1183 265.752 41.1019 265.081 40.3914C264.43 39.6809 263.62 39.3256 262.653 39.3256C261.667 39.3256 260.848 39.6809 260.196 40.3914C259.545 41.0821 259.219 42.0985 259.219 43.4405C259.219 44.7628 259.535 45.7792 260.167 46.4897C260.818 47.2002 261.627 47.5554 262.594 47.5554ZM137.715 81.0291H129.959L128.716 84.7H123.417L130.936 63.9182H136.798L144.317 84.7H138.959L137.715 81.0291ZM136.413 77.1214L133.837 69.5133L131.291 77.1214H136.413ZM145.599 76.4405C145.599 74.7235 145.944 73.2236 146.635 71.9408C147.346 70.658 148.322 69.6712 149.566 68.9804C150.829 68.2897 152.27 67.9443 153.888 67.9443C155.96 67.9443 157.687 68.487 159.069 69.5725C160.47 70.658 161.387 72.1875 161.822 74.1611H156.434C155.98 72.898 155.102 72.2664 153.799 72.2664C152.872 72.2664 152.131 72.6316 151.579 73.3618C151.026 74.0723 150.75 75.0985 150.75 76.4405C150.75 77.7826 151.026 78.8187 151.579 79.5489C152.131 80.2594 152.872 80.6147 153.799 80.6147C155.102 80.6147 155.98 79.9831 156.434 78.72H161.822C161.387 80.6541 160.47 82.1738 159.069 83.279C157.667 84.3842 155.94 84.9368 153.888 84.9368C152.27 84.9368 150.829 84.5914 149.566 83.9007C148.322 83.2099 147.346 82.2231 146.635 80.9403C145.944 79.6575 145.599 78.1576 145.599 76.4405ZM163.523 76.4109C163.523 74.7137 163.839 73.2236 164.47 71.9408C165.122 70.658 166 69.6712 167.105 68.9804C168.21 68.2897 169.444 67.9443 170.805 67.9443C171.97 67.9443 172.986 68.1811 173.855 68.6548C174.743 69.1285 175.424 69.7501 175.897 70.5198V68.1811H180.959V84.7H175.897V82.3613C175.404 83.131 174.713 83.7526 173.825 84.2263C172.957 84.7 171.94 84.9368 170.776 84.9368C169.434 84.9368 168.21 84.5914 167.105 83.9007C166 83.1902 165.122 82.1935 164.47 80.9107C163.839 79.6081 163.523 78.1082 163.523 76.4109ZM175.897 76.4405C175.897 75.1775 175.542 74.1808 174.832 73.4506C174.141 72.7204 173.292 72.3553 172.286 72.3553C171.279 72.3553 170.421 72.7204 169.71 73.4506C169.019 74.1611 168.674 75.1479 168.674 76.4109C168.674 77.674 169.019 78.6806 169.71 79.4305C170.421 80.1607 171.279 80.5258 172.286 80.5258C173.292 80.5258 174.141 80.1607 174.832 79.4305C175.542 78.7003 175.897 77.7036 175.897 76.4405ZM183.615 76.4109C183.615 74.7137 183.931 73.2236 184.563 71.9408C185.214 70.658 186.092 69.6712 187.197 68.9804C188.302 68.2897 189.536 67.9443 190.898 67.9443C191.983 67.9443 192.97 68.1713 193.858 68.6252C194.766 69.0791 195.476 69.6909 195.99 70.4606V62.7933H201.052V84.7H195.99V82.3317C195.516 83.1211 194.835 83.7526 193.947 84.2263C193.079 84.7 192.062 84.9368 190.898 84.9368C189.536 84.9368 188.302 84.5914 187.197 83.9007C186.092 83.1902 185.214 82.1935 184.563 80.9107C183.931 79.6081 183.615 78.1082 183.615 76.4109ZM195.99 76.4405C195.99 75.1775 195.634 74.1808 194.924 73.4506C194.233 72.7204 193.384 72.3553 192.378 72.3553C191.371 72.3553 190.513 72.7204 189.802 73.4506C189.112 74.1611 188.766 75.1479 188.766 76.4109C188.766 77.674 189.112 78.6806 189.802 79.4305C190.513 80.1607 191.371 80.5258 192.378 80.5258C193.384 80.5258 194.233 80.1607 194.924 79.4305C195.634 78.7003 195.99 77.7036 195.99 76.4405ZM220.286 76.1741C220.286 76.6478 220.256 77.1412 220.197 77.6543H208.74C208.819 78.6806 209.145 79.47 209.717 80.0226C210.309 80.5554 211.029 80.8219 211.878 80.8219C213.141 80.8219 214.019 80.289 214.513 79.2233H219.901C219.624 80.3088 219.121 81.2857 218.391 82.154C217.68 83.0224 216.782 83.7033 215.697 84.1967C214.612 84.6901 213.398 84.9368 212.056 84.9368C210.437 84.9368 208.997 84.5914 207.734 83.9007C206.471 83.2099 205.484 82.2231 204.773 80.9403C204.063 79.6575 203.708 78.1576 203.708 76.4405C203.708 74.7235 204.053 73.2236 204.744 71.9408C205.454 70.658 206.441 69.6712 207.704 68.9804C208.967 68.2897 210.418 67.9443 212.056 67.9443C213.654 67.9443 215.075 68.2798 216.319 68.9508C217.562 69.6219 218.529 70.579 219.22 71.8224C219.93 73.0657 220.286 74.5163 220.286 76.1741ZM215.105 74.842C215.105 73.9736 214.809 73.2828 214.217 72.7697C213.625 72.2566 212.885 72 211.997 72C211.148 72 210.428 72.2467 209.835 72.7401C209.263 73.2335 208.908 73.9341 208.77 74.842H215.105ZM244.034 68.0035C246.086 68.0035 247.715 68.6252 248.918 69.8685C250.142 71.1119 250.754 72.8388 250.754 75.0492V84.7H245.721V75.7301C245.721 74.6643 245.435 73.8453 244.863 73.273C244.31 72.6809 243.54 72.3849 242.554 72.3849C241.567 72.3849 240.787 72.6809 240.215 73.273C239.662 73.8453 239.386 74.6643 239.386 75.7301V84.7H234.353V75.7301C234.353 74.6643 234.067 73.8453 233.495 73.273C232.942 72.6809 232.173 72.3849 231.186 72.3849C230.199 72.3849 229.42 72.6809 228.847 73.273C228.295 73.8453 228.018 74.6643 228.018 75.7301V84.7H222.956V68.1811H228.018V70.2534C228.531 69.5626 229.202 69.0199 230.031 68.6252C230.86 68.2107 231.798 68.0035 232.844 68.0035C234.087 68.0035 235.192 68.27 236.159 68.8028C237.146 69.3357 237.916 70.0955 238.468 71.0823C239.041 70.1745 239.82 69.4344 240.807 68.862C241.794 68.2897 242.869 68.0035 244.034 68.0035ZM271.168 68.1811L260.807 92.5449H255.36L259.149 84.1375L252.429 68.1811H258.084L261.902 78.5128L265.692 68.1811H271.168Z" fill="white"/>
</g>
<defs>
<clipPath id="clip0_98_647">
<rect width="289.646" height="121.554" fill="white"/>
</clipPath>
</defs>
</svg>
