<svg width="48" height="48" viewBox="0 0 48 48" fill="none" xmlns="http://www.w3.org/2000/svg">
<path d="M40.2525 30.9764C44.2474 21.8584 40.0944 11.2283 30.9764 7.23341C21.8585 3.23849 11.2284 7.39154 7.23344 16.5095C3.23852 25.6275 7.39158 36.2576 16.5096 40.2525C25.6275 44.2474 36.2576 40.0943 40.2525 30.9764Z" fill="#DD9871"/>
<path d="M29.7275 15.8863C31.3027 14.8876 33.3974 15.3504 34.4042 16.9255C35.411 18.5007 34.9401 20.5954 33.3649 21.6022C31.7898 22.609 29.6951 22.1381 28.6883 20.563C27.6896 18.9878 28.1524 16.8931 29.7275 15.8863Z" fill="#D68C67"/>
<path d="M29.354 30.4034C29.6382 29.1125 30.921 28.3005 32.212 28.5928C33.5029 28.8851 34.3148 30.1598 34.0225 31.4508C33.7303 32.7417 32.4555 33.5537 31.1646 33.2614C29.8736 32.9691 29.0617 31.6944 29.354 30.4034Z" fill="#D68C67"/>
<path d="M14.2849 14.8632C14.5691 13.5723 15.8519 12.7604 17.1429 13.0527C18.4338 13.3368 19.2457 14.6197 18.9535 15.9106C18.6612 17.2016 17.3865 18.0135 16.0955 17.7212C14.8045 17.4289 13.9926 16.1542 14.2849 14.8632Z" fill="#D68C67"/>
<path d="M35.281 26.2139C35.4271 25.5644 36.0686 25.1584 36.7181 25.3046C37.3676 25.4507 37.7736 26.0921 37.6274 26.7416C37.4813 27.3912 36.8399 27.7971 36.1904 27.651C35.5408 27.5048 35.1348 26.8634 35.281 26.2139Z" fill="#D68C67"/>
<path d="M21.032 25.0122C21.1781 24.3627 21.8195 23.9567 22.4691 24.1029C23.1186 24.249 23.5246 24.8904 23.3784 25.54C23.2323 26.1895 22.5909 26.5955 21.9413 26.4494C21.2918 26.3032 20.8858 25.6618 21.032 25.0122Z" fill="#D68C67"/>
<path d="M12.8476 31.1179C13.0587 30.168 14.0005 29.5753 14.9505 29.7864C15.9004 29.9975 16.4931 30.9393 16.282 31.8892C16.0709 32.8392 15.1291 33.44 14.1791 33.2208C13.2292 33.0097 12.6365 32.0679 12.8476 31.1179Z" fill="#D68C67"/>
</svg>
