<svg width="132" height="95" viewBox="0 0 132 95" fill="none" xmlns="http://www.w3.org/2000/svg">
<path d="M75.1377 84.4557C95.7857 79.1081 108.189 58.0345 102.841 37.3865C97.4938 16.7385 76.4202 4.33511 55.7722 9.68274C35.1242 15.0304 22.7208 36.104 28.0685 56.7519C33.4161 77.3999 54.4897 89.8033 75.1377 84.4557Z" fill="#E4EAF5"/>
<path d="M27.3246 52.1732C23.7646 54.5032 20.2945 56.9532 17.1145 59.5832C15.5245 60.8932 14.0046 62.2532 12.6346 63.6932C11.2546 65.1032 10.0145 66.6032 9.08453 68.1532C8.12453 69.6732 7.49453 71.2432 7.36453 72.6632C7.34453 72.8432 7.33454 73.0132 7.33454 73.1932C7.33454 73.2832 7.33454 73.3632 7.33454 73.4532V73.5832C7.33454 73.5832 7.33454 73.6732 7.33454 73.6432C7.37454 73.5832 7.30454 73.1332 7.09454 72.8432C6.88454 72.5432 6.76455 72.5232 6.88455 72.5432C6.98455 72.5632 7.24456 72.6232 7.57456 72.6532C8.93456 72.7832 10.9145 72.5732 12.8045 72.2532C14.7345 71.9232 16.7045 71.4532 18.6845 70.9432C22.6445 69.8932 26.6445 68.7132 30.6145 67.3832C32.6045 66.7232 34.5845 66.0432 36.5645 65.3432L42.5245 63.2632C46.4945 61.8532 50.4445 60.3532 54.3945 58.8632C58.3545 57.3832 62.2945 55.8532 66.2245 54.2932L72.0345 51.9332L77.8445 49.4432L89.4445 44.3632C93.3046 42.6632 97.1245 40.8932 100.915 39.0932C104.705 37.2932 108.455 35.4332 112.085 33.4332C115.665 31.4232 119.265 29.2632 122.095 26.8632C122.775 26.2732 123.415 25.6532 123.825 25.1232C124.215 24.6832 124.435 23.9932 124.475 24.4532C124.505 24.6832 124.795 25.2032 124.975 25.2432C125.145 25.3232 125.055 25.1632 124.815 25.0432C124.325 24.7732 123.445 24.5432 122.545 24.4032C120.695 24.1132 118.635 24.0732 116.575 24.1132C114.505 24.1532 112.405 24.2932 110.305 24.4832C106.105 24.8632 101.865 25.4432 97.6745 26.1632L97.3846 25.0932C101.435 23.6232 105.515 22.3032 109.695 21.1532C111.785 20.5832 113.905 20.0532 116.065 19.6232C118.235 19.1932 120.435 18.8332 122.855 18.7532C124.075 18.7332 125.335 18.7532 126.875 19.1632C127.635 19.3832 128.525 19.7132 129.475 20.5232C129.935 20.9232 130.395 21.4732 130.715 22.1232C131.045 22.7732 131.225 23.4832 131.275 24.1332C131.365 25.4332 131.095 26.4232 130.805 27.2332C130.515 27.9932 130.085 28.7332 129.685 29.3332C128.855 30.5332 127.995 31.4432 127.125 32.3132C123.635 35.6432 119.975 38.0732 116.285 40.4732C108.905 45.2232 101.315 49.3332 93.6145 53.2132C89.7745 55.1732 85.8745 56.9932 81.9545 58.7732L76.0345 61.3832C73.9545 62.2732 72.0045 63.0232 69.9945 63.8232C65.9945 65.4032 61.9845 66.9332 57.9545 68.4232C53.9145 69.9032 49.8445 71.2932 45.7545 72.6532C43.7045 73.3232 41.6545 73.9932 39.5945 74.6332C37.5245 75.2532 35.4445 75.8532 33.3445 76.4232C29.1545 77.5532 24.9346 78.6632 20.5746 79.4632C18.3846 79.8632 16.1745 80.2032 13.8745 80.4232C12.7245 80.5332 11.5546 80.6032 10.3246 80.6132C9.09455 80.6132 7.82453 80.5732 6.36453 80.3032C5.63453 80.1632 4.85455 79.9732 3.97455 79.5832C3.11455 79.2032 2.05455 78.5832 1.19455 77.4432C0.314551 76.3132 -0.0454515 74.7732 0.00454851 73.6532C0.00454851 73.4832 0.00453752 73.3932 0.0245375 73.3132L0.0545363 73.0432C0.0745363 72.8632 0.0845339 72.6832 0.114534 72.5032C0.164534 72.1432 0.224536 71.7932 0.304536 71.4432C0.924536 68.6532 2.28454 66.3232 3.80454 64.3932C6.95454 60.5832 10.7646 58.0332 14.6646 55.9232C18.5946 53.8632 22.6646 52.2432 26.9146 51.1932L27.3345 52.2132L27.3246 52.1732Z" fill="#E2DA49"/>
</svg>
